<?xml version="1.0" encoding="utf-8"?>
<!-- Generator: Adobe Illustrator 24.1.1, SVG Export Plug-In . SVG Version: 6.00 Build 0)  -->
<svg version="1.1" id="Layer_1" xmlns="http://www.w3.org/2000/svg" xmlns:xlink="http://www.w3.org/1999/xlink" x="0px" y="0px"
	 viewBox="0 0 5 5" style="enable-background:new 0 0 5 5;" xml:space="preserve">
<g>
	<path d="M0.09,2.64c0-0.09,0-0.19,0-0.28c0-0.03,0.01-0.07,0.01-0.1c0.06-0.51,0.25-0.96,0.59-1.35c0.37-0.42,0.84-0.68,1.39-0.78
		C2.17,0.11,2.26,0.1,2.35,0.09c0.09,0,0.19,0,0.28,0c0.02,0,0.03,0.01,0.05,0.01C2.79,0.11,2.89,0.12,3,0.14
		c0.58,0.13,1.05,0.42,1.41,0.89C4.85,1.62,5,2.28,4.85,3c-0.12,0.58-0.42,1.05-0.89,1.4c-0.5,0.39-1.08,0.55-1.71,0.49
		C1.74,4.84,1.29,4.65,0.91,4.31c-0.42-0.37-0.69-0.84-0.79-1.4C0.11,2.82,0.1,2.73,0.09,2.64z M2.49,4.58
		c1.15,0,2.08-0.93,2.08-2.08c0-1.14-0.93-2.08-2.08-2.08c-1.15,0-2.08,0.93-2.08,2.08C0.41,3.64,1.35,4.58,2.49,4.58z"/>
	<path d="M1.79,2.33c0.02,0,0.04,0,0.05,0c0.57,0,1.15,0,1.72,0c0.02,0,0.05,0,0.07,0c0.08,0.01,0.14,0.08,0.14,0.16
		c0,0.08-0.06,0.15-0.14,0.16c-0.02,0-0.05,0-0.08,0c-0.57,0-1.14,0-1.71,0c-0.02,0-0.04,0-0.07,0C1.79,2.68,1.8,2.69,1.82,2.7
		C2.01,2.9,2.2,3.08,2.39,3.28C2.42,3.31,2.44,3.36,2.45,3.4c0.01,0.07-0.02,0.12-0.08,0.16C2.31,3.59,2.25,3.58,2.19,3.54
		C2.18,3.53,2.16,3.52,2.14,3.5C1.86,3.21,1.57,2.93,1.28,2.64c-0.1-0.1-0.1-0.19,0-0.29c0.29-0.29,0.58-0.58,0.87-0.87
		C2.2,1.44,2.25,1.4,2.32,1.42c0.12,0.03,0.17,0.16,0.1,0.26C2.41,1.69,2.39,1.71,2.38,1.72C2.19,1.91,2.01,2.1,1.82,2.28
		C1.81,2.29,1.79,2.3,1.78,2.31C1.78,2.32,1.78,2.32,1.79,2.33z"/>
</g>
</svg>
