<?xml version="1.0" encoding="utf-8"?>
<!-- Generator: Adobe Illustrator 24.1.1, SVG Export Plug-In . SVG Version: 6.00 Build 0)  -->
<svg version="1.1" id="Layer_1" xmlns="http://www.w3.org/2000/svg" xmlns:xlink="http://www.w3.org/1999/xlink" x="0px" y="0px"
	 viewBox="0 0 500 200" style="enable-background:new 0 0 500 200;" xml:space="preserve">
<style type="text/css">
	.st0{fill:#020202;}
	.st1{font-family:'Poppins-Medium';}
	.st2{font-size:2.2972px;}
	.st3{fill:#4E3E8D;}
	.st4{fill:#3DB7D9;}
	.st5{fill:#DA3E07;}
	.st6{fill:#FACB10;}
	.st7{fill:#F5930C;}
	.st8{fill:#117F3F;}
	.st9{fill:#919F08;}
	.st10{fill:#1D3583;}
	.st11{fill:#44A62F;}
	.st12{fill:#E23C91;}
	.st13{stroke:#44A62F;stroke-width:0.5;stroke-miterlimit:10;}
	.st14{font-family:'GuildofProfessionalActors';}
	.st15{font-size:12px;}
	.st16{stroke:#FACB10;stroke-width:0.5;stroke-miterlimit:10;}
	.st17{stroke:#DA3E07;stroke-width:0.5;stroke-miterlimit:10;}
	.st18{stroke:#F5930C;stroke-width:0.5;stroke-miterlimit:10;}
	.st19{stroke:#3DB7D9;stroke-width:0.5;stroke-miterlimit:10;}
	.st20{stroke:#000000;stroke-width:0.25;stroke-miterlimit:10;}
	.st21{stroke:#000000;stroke-width:0.5;stroke-miterlimit:10;}
</style>
<text transform="matrix(1 0 0 1 207.3509 26.5073)" class="st0 st1 st2"> Professional painters    &amp; Tool rentals</text>
<path class="st3" d="M202.03,22.19c-0.83,0.15-1.64,0.09-2.43-0.18c0.31-0.42,0.4-0.86,0.14-1.33c-0.08-0.13-0.03-0.21,0.06-0.31
	c0.25-0.27,0.57-0.37,0.91-0.47c0.14,0,0.28,0.01,0.42,0.01c0.6,0.2,1.04,0.54,1.17,1.2C202.38,21.53,202.16,21.85,202.03,22.19z"/>
<path class="st4" d="M202.03,22.19c0.13-0.35,0.35-0.66,0.26-1.08c-0.13-0.66-0.58-1-1.17-1.2c0.65,0,1.24-0.2,1.77-0.57
	c0.07,0.59,0.41,0.82,1.15,0.77c-0.01,0.38,0.1,0.74,0.31,1.06C203.66,21.71,202.9,22.08,202.03,22.19z"/>
<path class="st5" d="M200.7,19.91c-0.33,0.1-0.66,0.2-0.91,0.47c-0.09,0.1-0.13,0.17-0.06,0.31c0.26,0.47,0.17,0.91-0.14,1.33
	c-0.04-0.02-0.09-0.03-0.13-0.05c-0.1-0.39-0.19-0.81,0-1.17c0.19-0.35-0.01-0.45-0.25-0.58c-0.32-0.17-0.65-0.05-0.97-0.04
	c-0.17-0.33-0.26-0.68-0.24-1.06c0.07-0.35,0.27-0.64,0.44-0.94c0.05-0.02,0.09-0.05,0.14-0.07c0.16,0.26,0.3,0.54,0.48,0.79
	C199.47,19.46,200.06,19.73,200.7,19.91z"/>
<path class="st6" d="M202.26,14.67c-0.39-0.16-0.81-0.12-1.22-0.18c-0.17-0.47-0.57-0.55-1-0.59c0.2-0.58,0.59-0.89,1.14-0.9
	c0.57-0.01,1,0.29,1.21,0.86c0.03,0.09,0.06,0.18,0.08,0.27C202.38,14.31,202.26,14.47,202.26,14.67z"/>
<path class="st7" d="M198.2,14.55c-0.38-0.48-0.42-0.92-0.13-1.33c0.26-0.36,0.72-0.49,1.15-0.33c0.41,0.15,0.61,0.5,0.6,1.02
	c-0.22,0.21-0.57,0.3-0.65,0.65c-0.3-0.07-0.6-0.19-0.9,0C198.25,14.56,198.22,14.55,198.2,14.55z"/>
<path class="st8" d="M204.35,21.18c-0.21-0.32-0.32-0.67-0.31-1.06c0,0,0.02,0,0.02,0c0.55-0.19,0.69-0.61,0.64-1.14l0-0.04
	c0.27-0.14,0.54-0.27,0.85-0.26c0.29,0.48,0.26,0.95-0.07,1.39C205.15,20.49,204.83,20.91,204.35,21.18z"/>
<path class="st9" d="M196.4,18.92c-0.3-0.6-0.4-1.23-0.32-1.9c0.42,0.29,0.84,0.45,1.3,0.09c0.02,0,0.04,0,0.07,0
	c0.13,0.17,0.21,0.36,0.24,0.57c0.01,0.45-0.19,0.8-0.53,1.08C196.91,18.87,196.66,18.91,196.4,18.92z"/>
<path class="st7" d="M198.25,20.18c0.32-0.01,0.65-0.14,0.97,0.04c0.24,0.13,0.44,0.22,0.25,0.58c-0.19,0.37-0.1,0.78,0,1.17
	c-0.68-0.19-1.26-0.55-1.74-1.05C197.77,20.58,198.09,20.44,198.25,20.18z"/>
<path class="st6" d="M198.25,20.18c-0.16,0.25-0.48,0.4-0.52,0.74c-0.62-0.55-1.07-1.21-1.33-2c0.26-0.01,0.52-0.05,0.76-0.15
	c0.15,0.44,0.53,0.34,0.86,0.36C197.99,19.5,198.08,19.85,198.25,20.18z"/>
<path class="st10" d="M204.7,18.94c0,0,0,0.04,0,0.04c-0.4,0.28-0.61,0.66-0.64,1.14c0,0-0.02,0-0.02,0
	c-0.74,0.05-1.08-0.18-1.15-0.77c0.24-0.19,0.45-0.41,0.61-0.68c0.11-0.18,0.25-0.34,0.47-0.4C204.3,18.4,204.56,18.6,204.7,18.94z"
	/>
<path class="st11" d="M197.44,17.12c-0.02,0-0.04,0-0.07,0c0-0.14-0.12-0.18-0.21-0.25c-0.34-0.26-0.71-0.16-1.08-0.1
	c-0.05-0.39,0.08-0.75,0.18-1.11c0.05-0.2,0.21-0.24,0.38-0.27c0.43-0.08,0.78,0.1,1.02,0.52c-0.3,0.32-0.26,0.68-0.15,1.05
	C197.49,17.01,197.47,17.06,197.44,17.12z"/>
<path class="st12" d="M202.26,14.67c0.01-0.2,0.12-0.36,0.2-0.54c0.66-0.39,1.03-0.32,1.46,0.28c0,0.04-0.01,0.07-0.01,0.11
	c-0.17,0.12-0.13,0.29-0.12,0.45c-0.1,0.16-0.25,0.3-0.23,0.51c-0.01,0.02-0.03,0.04-0.04,0.06
	C203.17,15.14,202.77,14.83,202.26,14.67z"/>
<path class="st4" d="M198.2,14.55c0.02,0,0.05,0.01,0.07,0.01c0.14,0.15,0.32,0.21,0.51,0.2c0.21-0.01,0.32,0.05,0.3,0.28
	c-0.01,0.08,0,0.17,0.08,0.23c-0.17,0.25-0.35,0.49-0.52,0.74c-0.23-0.14-0.46-0.26-0.73-0.15c-0.02,0-0.03-0.01-0.04-0.02
	c-0.11-0.23-0.12-0.48-0.14-0.72c0.01-0.06,0.01-0.13,0.08-0.17C197.94,14.81,198.07,14.68,198.2,14.55z"/>
<path class="st4" d="M203.51,15.54c0.01-0.02,0.02-0.04,0.04-0.06c0.19-0.02,0.24-0.21,0.36-0.31c0.35,0.23,0.63,0.15,0.86-0.17
	c0.12,0.34,0.33,0.57,0.72,0.56C205.01,16.32,204,16.32,203.51,15.54z"/>
<path class="st9" d="M199.17,14.56c0.08-0.35,0.43-0.44,0.65-0.65c0.07,0.03,0.14,0.01,0.21-0.01c0.43,0.04,0.83,0.12,1,0.59
	c-0.55,0.06-1.08,0.19-1.55,0.5C199.44,14.8,199.27,14.7,199.17,14.56z"/>
<path class="st12" d="M197.81,14.95c-0.07,0.04-0.07,0.1-0.08,0.17c-0.07,0.02-0.13,0.04-0.2,0.07c-0.28,0.13-0.52,0.06-0.7-0.17
	c-0.16-0.21-0.16-0.45-0.01-0.66c0.16-0.23,0.4-0.3,0.66-0.2c0.28,0.1,0.39,0.33,0.36,0.63C197.84,14.83,197.82,14.89,197.81,14.95z
	"/>
<path class="st5" d="M197.86,15.83c0.01,0.01,0.02,0.02,0.04,0.02c0.15,0.23,0.36,0.36,0.63,0.41c-0.05,0.3-0.11,0.59-0.16,0.89
	c-0.31,0.09-0.57-0.01-0.81-0.2c0.26-0.31,0.26-0.67,0.15-1.03C197.76,15.89,197.81,15.86,197.86,15.83z"/>
<path class="st7" d="M202.8,13.74c-0.29-0.01-0.49-0.23-0.47-0.52c0.01-0.25,0.24-0.45,0.51-0.44c0.27,0.01,0.47,0.23,0.46,0.5
	C203.29,13.54,203.06,13.75,202.8,13.74z"/>
<path class="st6" d="M200.16,12.21c0.28,0,0.49,0.19,0.49,0.45c0,0.27-0.22,0.5-0.47,0.48c-0.27-0.02-0.44-0.17-0.47-0.45
	C199.68,12.43,199.88,12.22,200.16,12.21z"/>
<path class="st4" d="M204.7,18.94c-0.14-0.34-0.4-0.54-0.73-0.67c0.58-0.32,1.16-0.17,1.58,0.41
	C205.24,18.67,204.97,18.81,204.7,18.94z"/>
<path class="st8" d="M196.09,16.77c0.37-0.06,0.74-0.15,1.08,0.1c0.09,0.07,0.21,0.11,0.21,0.25c-0.46,0.36-0.89,0.19-1.3-0.09
	C196.08,16.94,196.08,16.85,196.09,16.77z"/>
<path class="st6" d="M197.56,16.95c0.24,0.19,0.5,0.29,0.81,0.2c0.07,0.32,0.15,0.64,0.22,0.96c-0.05,0.02-0.09,0.05-0.14,0.07
	c-0.08-0.44-0.39-0.52-0.77-0.5c-0.03-0.21-0.11-0.4-0.24-0.57c0.02-0.05,0.05-0.1,0.07-0.16
	C197.53,16.96,197.55,16.96,197.56,16.95z"/>
<path class="st12" d="M204.84,14.7c0.01-0.1,0.06-0.18,0.13-0.25c0.29-0.31,0.54-0.26,0.67,0.14c0.09,0.29,0.11,0.58-0.1,0.84
	C205.41,15.09,205.17,14.85,204.84,14.7z"/>
<path class="st10" d="M204.51,13.91c-0.26,0-0.4-0.13-0.41-0.36c-0.01-0.23,0.13-0.39,0.37-0.39c0.23,0,0.38,0.12,0.39,0.37
	C204.86,13.77,204.73,13.9,204.51,13.91z"/>
<path class="st5" d="M202.03,12.77c-0.27-0.01-0.4-0.14-0.4-0.36c0-0.21,0.12-0.37,0.36-0.36c0.23,0,0.35,0.15,0.36,0.37
	C202.35,12.63,202.22,12.76,202.03,12.77z"/>
<path class="st8" d="M199.17,14.56c0.1,0.14,0.27,0.24,0.31,0.43c-0.11,0.09-0.21,0.19-0.32,0.28c-0.07-0.06-0.08-0.15-0.08-0.23
	c0.02-0.23-0.09-0.29-0.3-0.28c-0.2,0.01-0.38-0.05-0.51-0.2C198.57,14.37,198.87,14.49,199.17,14.56z"/>
<path class="st10" d="M204.84,14.7c0.33,0.15,0.57,0.39,0.7,0.74c-0.02,0.04-0.03,0.08-0.05,0.13c-0.39,0.01-0.6-0.23-0.72-0.56
	c0-0.09,0-0.18,0-0.27l0.01-0.03C204.8,14.71,204.82,14.71,204.84,14.7z"/>
<path class="st6" d="M203.9,14.52c0-0.04,0.01-0.07,0.01-0.11c0.5-0.2,0.66-0.15,0.86,0.29c0,0-0.01,0.03-0.01,0.03
	c-0.28-0.11-0.53,0.03-0.78,0.1C203.97,14.72,204,14.6,203.9,14.52z"/>
<path class="st8" d="M197.56,16.95c-0.02,0-0.03,0-0.05,0c-0.11-0.37-0.14-0.74,0.15-1.05c0.02,0,0.03,0,0.05,0.01
	C197.83,16.29,197.82,16.64,197.56,16.95z"/>
<path class="st5" d="M203.54,12.26c0.14,0.03,0.23,0.11,0.23,0.26c-0.01,0.16-0.11,0.22-0.26,0.22c-0.15,0-0.21-0.11-0.21-0.23
	C203.3,12.36,203.38,12.27,203.54,12.26z"/>
<path class="st8" d="M198.53,16.26c-0.27-0.05-0.48-0.18-0.63-0.41c0.28-0.12,0.51,0,0.73,0.15
	C198.6,16.09,198.57,16.18,198.53,16.26z"/>
<path class="st6" d="M199.39,12.43c-0.01,0.13-0.08,0.23-0.21,0.23c-0.13,0-0.22-0.08-0.22-0.22c0-0.13,0.07-0.21,0.19-0.21
	C199.26,12.23,199.37,12.28,199.39,12.43z"/>
<path class="st11" d="M200.96,12.05c-0.14-0.01-0.21-0.08-0.21-0.2c0-0.15,0.1-0.21,0.23-0.22c0.12,0,0.2,0.07,0.2,0.2
	C201.18,11.98,201.08,12.03,200.96,12.05z"/>
<path class="st7" d="M197.68,17.69c0.38-0.02,0.69,0.07,0.77,0.5c-0.17,0.3-0.37,0.59-0.44,0.94c-0.33-0.02-0.71,0.09-0.86-0.36
	C197.49,18.48,197.69,18.14,197.68,17.69z"/>
<path class="st11" d="M204.06,20.12c0.02-0.49,0.24-0.86,0.64-1.14C204.75,19.5,204.61,19.93,204.06,20.12z"/>
<path class="st10" d="M203.91,15.17c-0.12,0.1-0.17,0.29-0.36,0.31c-0.02-0.21,0.13-0.35,0.23-0.51c0.04,0,0.07,0.01,0.11,0.01
	C203.9,15.05,203.91,15.11,203.91,15.17z"/>
<path class="st5" d="M203.89,14.98c-0.04,0-0.07-0.01-0.11-0.01c-0.02-0.16-0.06-0.34,0.12-0.45c0.1,0.08,0.07,0.2,0.09,0.31
	C203.96,14.88,203.93,14.93,203.89,14.98z"/>
<path class="st11" d="M203.89,14.98c0.03-0.05,0.06-0.1,0.09-0.15c0.26-0.07,0.5-0.21,0.78-0.1c0,0.09,0,0.18,0,0.27
	c-0.23,0.32-0.51,0.4-0.86,0.17C203.91,15.11,203.9,15.05,203.89,14.98z"/>
<text transform="matrix(1 0 0 1 207.3509 22.5991)"><tspan x="0" y="0" class="st13 st14 st15">o</tspan><tspan x="5.63" y="0" class="st16 st14 st15">l</tspan><tspan x="7.88" y="0" class="st17 st14 st15">o</tspan><tspan x="13.51" y="0" class="st18 st14 st15">u</tspan><tspan x="19.22" y="0" class="st19 st14 st15">r</tspan></text>
<text transform="matrix(1 0 0 1 225.2982 22.3422)"><tspan x="0" y="0" class="st20 st14 st15"> </tspan><tspan x="7.09" y="0" class="st21 st14 st15">plus</tspan></text>
</svg>
