<?xml version="1.0" encoding="utf-8"?>
<!-- Generator: Adobe Illustrator 24.1.1, SVG Export Plug-In . SVG Version: 6.00 Build 0)  -->
<svg version="1.1" id="Layer_1" xmlns="http://www.w3.org/2000/svg" xmlns:xlink="http://www.w3.org/1999/xlink" x="0px" y="0px"
	 viewBox="0 0 150 80" style="enable-background:new 0 0 150 80;" xml:space="preserve">
<style type="text/css">
	.st0{fill:#E13F91;}
	.st1{fill:#46A749;}
	.st2{fill:#F8C81B;}
	.st3{fill:#2FA6D9;}
	.st4{fill:#3A4893;}
	.st5{fill:#C65A34;}
	.st6{fill:#FFFFFF;}
</style>
<path class="st0" d="M58.42,51.68c-1.87-0.07-3.81-1.02-5-3.16c-1.13-2.04-1.1-4.15,0.08-6.15c1.27-2.13,3.25-3.07,5.7-3.03
	c2.76,0.05,5.1,1.79,5.87,4.3C66.34,47.76,63.35,51.69,58.42,51.68z M55.88,45.58c0.01,0.17,0.02,0.42,0.05,0.67
	c0.21,1.52,1.34,2.59,2.87,2.72c1.42,0.12,2.67-0.75,3.12-2.19c0.26-0.84,0.26-1.69,0-2.52c-0.43-1.38-1.47-2.16-2.87-2.18
	c-1.48-0.02-2.51,0.73-2.99,2.13C55.93,44.63,55.9,45.06,55.88,45.58z"/>
<path class="st1" d="M44.87,45.52c0,3.49-2.73,6.15-6.31,6.16c-3.62,0.01-6.39-2.67-6.39-6.18c0-3.51,2.78-6.18,6.41-6.16
	C42.17,39.37,44.87,42.02,44.87,45.52z M38.55,42.07c-1.41,0-2.48,0.75-2.93,2.08c-0.3,0.88-0.3,1.78-0.01,2.67
	c0.44,1.33,1.53,2.14,2.91,2.15c1.37,0.01,2.47-0.78,2.93-2.11c0.32-0.94,0.31-1.89-0.04-2.82C40.92,42.78,39.9,42.07,38.55,42.07z"
	/>
<path class="st2" d="M79.14,43.95c-0.01,1.1,0.01,2.2-0.1,3.3c-0.16,1.65-1.02,2.87-2.42,3.62c-2.22,1.2-4.51,1.16-6.68-0.16
	c-1.37-0.83-2.14-2.1-2.21-3.75c-0.09-1.9-0.07-3.8-0.06-5.7c0.01-0.98,0.69-1.66,1.58-1.65c0.89,0.01,1.57,0.69,1.59,1.66
	c0.03,1.71,0.07,3.42,0.02,5.12c-0.04,1.3,0.98,2.23,1.84,2.46c1.2,0.32,2.34-0.17,2.98-1.23c0.24-0.4,0.26-0.84,0.27-1.28
	c0.03-1.54,0.03-3.09,0.04-4.63c0-0.25-0.02-0.5,0.02-0.74c0.11-0.8,0.81-1.38,1.62-1.36c0.81,0.02,1.49,0.63,1.52,1.45
	C79.17,42.02,79.14,42.99,79.14,43.95z"/>
<path class="st2" d="M50.34,43.02c0,2.1,0,4.19,0,6.29c0,0.22,0.01,0.44-0.01,0.66c-0.08,0.83-0.73,1.41-1.55,1.42
	c-0.82,0.01-1.48-0.56-1.59-1.39c-0.02-0.19-0.01-0.39-0.01-0.58c0-4.3,0-8.6,0-12.91c0-0.17-0.01-0.33,0.01-0.5
	c0.08-0.85,0.78-1.49,1.6-1.48c0.84,0.02,1.52,0.65,1.54,1.53c0.03,1.13,0.01,2.26,0.01,3.39C50.34,40.64,50.34,41.83,50.34,43.02z"
	/>
<path class="st3" d="M81.99,46.77c-0.05-1.17,0.08-2.68,0.14-4.19c0.03-0.68,0.11-1.36,0.63-1.91c0.54-0.58,1.14-0.9,1.95-0.91
	c0.74-0.01,1.48-0.17,2.22-0.14c0.34,0.01,0.66,0.07,0.95,0.23c0.48,0.25,0.75,0.65,0.74,1.19c-0.01,0.57-0.39,1.05-0.96,1.21
	c-0.26,0.07-0.54,0.09-0.81,0.12c-0.27,0.02-0.55,0.01-0.83,0.02c-0.66,0.04-0.77,0.14-0.79,0.78c-0.02,0.55-0.02,1.1-0.02,1.65
	c0,1.54,0,3.09,0,4.63c0,0.36-0.02,0.71-0.18,1.05c-0.33,0.67-0.94,0.98-1.71,0.86c-0.69-0.1-1.14-0.6-1.24-1.34
	C81.95,49.05,82.01,48.08,81.99,46.77z"/>
<g>
	<path class="st2" d="M13.29,49.49c-1.8-0.49-3.26-1.55-4.57-2.83c-1.41-1.38-2.49-2.99-3.1-4.89c0.25-0.01,0.49-0.01,0.74-0.04
		c0.76-0.08,1.43-0.35,1.89-1c0.64-0.92,0.8-1.89,0.31-2.94c-0.12-0.26-0.37-0.53,0.02-0.77c0.63,0.42,1.3,0.63,2.05,0.39
		c0.06,0.81,0.26,1.6,0.46,2.38c-1.59,1.27-1.76,3.33-0.97,4.91c0.17,0.35,0.36,0.48,0.78,0.36c0.84-0.24,1.63-0.07,2.33,0.46
		c0.17,0.13,0.31,0.33,0.55,0.33c0,0.05,0,0.11-0.01,0.16c-0.57,0.33-0.59,0.92-0.67,1.47C13,48.17,13.19,48.83,13.29,49.49z"/>
	<path class="st4" d="M13.77,46.02c0.01-0.05,0.01-0.11,0.01-0.16c0.75-0.78,1.64-1.29,2.71-1.51c0.47,0.04,0.94,0.07,1.42,0.11
		c0.19,0.1,0.38,0.21,0.58,0.31c1.46,0.73,2.2,2.13,1.97,3.73c-0.08,0.56-0.41,1.01-0.6,1.53c-0.18,0.13-0.39,0.19-0.61,0.2
		c-1.86,0.07-3.71,0.1-5.5-0.57C14.63,48.28,14.63,47.2,13.77,46.02z"/>
	<path class="st1" d="M8.58,37.02c-0.39,0.25-0.15,0.52-0.02,0.77c0.5,1.04,0.33,2.01-0.31,2.94c-0.46,0.66-1.13,0.92-1.89,1
		c-0.24,0.03-0.49,0.03-0.74,0.04c-0.74-1.61-0.89-3.32-0.82-5.06c0.04-0.96,0.22-1.9,0.45-2.84c0.14-0.56,0.47-0.82,1.02-0.9
		c0.89-0.14,1.62,0.13,2.22,0.78c0.17,0.18,0.29,0.39,0.44,0.59C9.18,35.29,9,36.17,8.58,37.02z"/>
	<path class="st3" d="M19.85,50.02c0.19-0.51,0.52-0.96,0.6-1.53c0.22-1.6-0.51-3-1.97-3.73c-0.19-0.1-0.38-0.2-0.58-0.31
		c0.61-0.12,1.23-0.22,1.83-0.37c0.77-0.2,1.45-0.62,2.13-1.01c0.24,0.88,0.76,1.52,1.65,1.8c0.43,0.13,0.87,0.05,1.31,0.05
		c0.02,0.94,0.21,1.83,0.78,2.6c-1.59,1.17-3.3,2.09-5.27,2.46C20.18,50.02,20.02,50.01,19.85,50.02z"/>
	<path class="st5" d="M16.49,44.35c-1.06,0.21-1.96,0.72-2.71,1.51c-0.25-0.01-0.38-0.2-0.55-0.33c-0.71-0.52-1.49-0.7-2.33-0.46
		c-0.42,0.12-0.6-0.01-0.78-0.36c-0.79-1.58-0.62-3.64,0.97-4.91c0.16,0.29,0.33,0.57,0.48,0.87c0.92,1.83,2.39,2.99,4.37,3.51
		C16.12,44.23,16.31,44.29,16.49,44.35z"/>
	<path class="st1" d="M25.61,47.52c-0.57-0.77-0.75-1.66-0.78-2.6c0.14-1.21,0.73-2.16,1.61-2.97c0.67-0.34,1.34-0.7,2.12-0.7
		c0.67,0.95,0.73,1.99,0.17,2.95C27.96,45.53,26.95,46.7,25.61,47.52z"/>
	<path class="st2" d="M10.19,30.88c-0.13-0.17-0.28-0.34-0.4-0.52c-0.58-0.88-0.58-1.94,0.01-2.78c0.58-0.84,1.6-1.21,2.61-0.97
		c0.94,0.22,1.64,1.01,1.81,2.03c0.04,0.24,0.06,0.49,0.09,0.73c-0.53,0.28-1.09,0.55-1.42,1.08c-0.22,0.35-0.42,0.47-0.86,0.32
		c-0.55-0.18-1.13-0.22-1.66,0.13C10.32,30.89,10.26,30.89,10.19,30.88z"/>
	<path class="st2" d="M14.76,29.26c0.46-1.82,2.48-2.93,4.43-1.88c1.01,0.54,1.43,1.46,1.59,2.53c-0.08,0.39-0.17,0.78-0.25,1.18
		c-1.1-0.15-2.19-0.39-3.3-0.39c-0.19-0.52-0.57-0.85-1.05-1.08C15.73,29.39,15.25,29.32,14.76,29.26z"/>
	<path class="st4" d="M26.44,41.95c-0.88,0.81-1.47,1.76-1.61,2.97c-0.44,0-0.88,0.08-1.31-0.05c-0.9-0.28-1.41-0.91-1.65-1.8
		c0.65-0.62,1.29-1.25,1.76-2.03c0.21-0.34,0.5-0.65,0.93-0.76C25.46,40.53,26.11,41.06,26.44,41.95z"/>
	<path class="st0" d="M20.53,31.08c0.08-0.39,0.17-0.78,0.25-1.18c0.41-0.27,0.81-0.58,1.31-0.66c1.02-0.16,1.88,0.34,2.36,1.37
		c-0.26,0.41-0.31,0.86-0.23,1.33c-0.31,0.37-0.63,0.73-0.63,1.26c-0.03,0.03-0.05,0.07-0.07,0.12
		C22.71,32.33,21.64,31.68,20.53,31.08z"/>
	<path class="st1" d="M14.76,29.26c0.48,0.07,0.97,0.13,1.42,0.35c0.48,0.23,0.86,0.57,1.05,1.08c-1.79,0.15-3.4,0.71-4.71,1.99
		c-0.1-0.2-0.17-0.4-0.19-0.62c-0.04-0.6-0.05-0.61-0.69-0.65c-0.48-0.03-0.92-0.13-1.26-0.51c0.53-0.35,1.12-0.31,1.66-0.13
		c0.44,0.15,0.63,0.03,0.86-0.32c0.33-0.53,0.88-0.8,1.42-1.08C14.48,29.39,14.62,29.32,14.76,29.26z"/>
	<path class="st3" d="M10.38,30.9c0.33,0.38,0.78,0.48,1.26,0.51c0.64,0.04,0.65,0.04,0.69,0.65c0.02,0.23,0.09,0.43,0.19,0.62
		c-0.51,0.58-0.88,1.24-1.3,1.89c-0.53-0.45-1.14-0.63-1.83-0.51c-0.39-0.57-0.34-1.22-0.38-1.86L9.01,32.2
		c0.22-0.03,0.21-0.18,0.18-0.34l-0.01,0.01c0.13,0.01,0.16-0.07,0.16-0.18L9.33,31.7c0.36-0.2,0.59-0.53,0.87-0.81
		C10.26,30.89,10.32,30.89,10.38,30.9z"/>
	<path class="st3" d="M28.41,33.42c-1.21,1.9-3.84,1.84-4.87-0.1c0.01-0.04,0.03-0.08,0.07-0.12c0.47-0.09,0.62-0.51,0.87-0.82
		c1.1,0.59,1.41,0.52,2.14-0.45c0.02-0.02,0.04-0.03,0.07-0.05C26.88,32.81,27.44,33.35,28.41,33.42z"/>
	<path class="st0" d="M9.01,32.19c-0.22-0.03-0.34,0.16-0.51,0.23c-0.84,0.36-1.69,0.02-1.96-0.78C6.26,30.84,6.72,30,7.57,29.79
		c0.79-0.2,1.57,0.38,1.71,1.26c0.04,0.21-0.1,0.44,0.05,0.64c0,0,0.02-0.01,0.02-0.01c-0.16-0.03-0.16,0.07-0.16,0.18
		c0,0,0.01-0.01,0.01-0.01C9.03,31.92,8.96,32.02,9.01,32.19L9.01,32.19z"/>
	<path class="st5" d="M8.58,37.02c0.42-0.85,0.6-1.74,0.35-2.67c0.16-0.07,0.31-0.14,0.47-0.22c0.45,0.48,0.94,0.9,1.62,1.01
		c-0.17,0.75-0.32,1.5-0.39,2.27C9.87,37.65,9.21,37.44,8.58,37.02z"/>
	<path class="st2" d="M21.7,28.79c-0.71-0.03-1.16-0.51-1.14-1.24c0.02-0.66,0.58-1.17,1.26-1.12c0.66,0.04,1.15,0.62,1.1,1.3
		C22.88,28.37,22.36,28.82,21.7,28.79z"/>
	<path class="st2" d="M16.28,26.14c-0.02,0.65-0.52,1.16-1.15,1.17c-0.66,0.01-1.18-0.56-1.14-1.24c0.03-0.65,0.49-1.07,1.13-1.06
		C15.8,25.02,16.29,25.5,16.28,26.14z"/>
	<path class="st3" d="M26.44,41.95c-0.33-0.89-0.98-1.43-1.89-1.67c1.53-0.84,3.02-0.48,4.01,0.97
		C27.79,41.26,27.12,41.62,26.44,41.95z"/>
	<path class="st0" d="M26.74,31.25c0.28-0.4,0.52-0.83,1.02-1.02c0.51-0.19,0.7-0.15,0.91,0.34c0.36,0.87,0.47,1.73-0.09,2.57
		c-0.35-0.86-0.82-1.59-1.81-1.81C26.74,31.31,26.73,31.28,26.74,31.25z"/>
	<path class="st5" d="M13.77,46.02c0.86,1.18,0.85,2.27-0.03,3.64c-0.15-0.05-0.3-0.11-0.46-0.16c-0.1-0.66-0.28-1.32-0.18-2
		C13.18,46.94,13.2,46.35,13.77,46.02z"/>
	<path class="st4" d="M25.93,29.26c-0.52,0.01-0.96-0.4-0.99-0.91c-0.02-0.5,0.4-0.96,0.91-0.99c0.55-0.03,1.03,0.41,1.03,0.95
		C26.88,28.83,26.45,29.25,25.93,29.26z"/>
	<path class="st1" d="M26.74,31.25c-0.01,0.03,0,0.06,0.03,0.09c-0.02,0.18-0.05,0.36-0.07,0.54c-0.02,0.02-0.05,0.03-0.07,0.05
		c-0.73,0.97-1.05,1.04-2.14,0.45c-0.03-0.14-0.06-0.28-0.09-0.42c0.11-0.14,0.22-0.29,0.33-0.43c0.59-0.27,1.21-0.37,1.86-0.32
		C26.63,31.22,26.68,31.23,26.74,31.25z"/>
	<path class="st5" d="M19.72,26.37c-0.49,0.01-0.91-0.37-0.94-0.85c-0.03-0.52,0.39-0.97,0.9-0.96c0.46,0.01,0.89,0.43,0.91,0.89
		C20.62,25.92,20.19,26.37,19.72,26.37z"/>
	<path class="st4" d="M26.69,31.88c0.02-0.18,0.05-0.36,0.07-0.54c0.99,0.22,1.46,0.95,1.81,1.81c-0.02,0.11-0.06,0.21-0.16,0.27
		C27.44,33.35,26.88,32.81,26.69,31.88z"/>
	<path class="st2" d="M26.58,31.2c-0.65-0.04-1.27,0.06-1.86,0.32c-0.05-0.3-0.1-0.6-0.15-0.9C25.59,29.97,26.2,30.14,26.58,31.2z"
		/>
	<path class="st5" d="M24.12,25.69c0.02,0.34-0.18,0.55-0.54,0.57c-0.36,0.02-0.59-0.17-0.62-0.5c-0.03-0.33,0.27-0.66,0.59-0.66
		C23.84,25.11,24.11,25.38,24.12,25.69z"/>
	<path class="st1" d="M11.01,35.15c-0.68-0.12-1.17-0.53-1.62-1.01c0,0,0-0.08,0-0.08c0.69-0.12,1.3,0.06,1.83,0.51
		C11.19,34.77,11.16,34.98,11.01,35.15z"/>
	<path class="st2" d="M12.55,25.04c0.31,0.01,0.55,0.14,0.57,0.46c0.02,0.31-0.15,0.53-0.48,0.56c-0.33,0.03-0.52-0.15-0.56-0.47
		C12.04,25.29,12.25,25.05,12.55,25.04z"/>
	<path class="st1" d="M17.03,24.55c-0.25-0.02-0.53-0.33-0.47-0.57c0.07-0.3,0.3-0.45,0.6-0.46c0.28,0,0.5,0.28,0.46,0.57
		C17.58,24.35,17.3,24.57,17.03,24.55z"/>
	<path class="st5" d="M24.57,30.62c0.05,0.3,0.1,0.6,0.15,0.9c-0.11,0.14-0.22,0.29-0.33,0.43c-0.05,0-0.11-0.01-0.16-0.01
		c-0.08-0.47-0.04-0.92,0.23-1.33C24.49,30.61,24.53,30.62,24.57,30.62z"/>
	<path class="st4" d="M24.23,31.94c0.05,0,0.11,0.01,0.16,0.01c0.03,0.14,0.06,0.28,0.09,0.42c-0.25,0.31-0.41,0.73-0.87,0.82
		C23.6,32.67,23.92,32.31,24.23,31.94z"/>
	<path class="st6" d="M9.01,32.2c-0.05-0.17,0.02-0.27,0.18-0.34C9.22,32.02,9.23,32.17,9.01,32.2z"/>
	<path class="st6" d="M9.18,31.87c0-0.11,0-0.22,0.16-0.18C9.34,31.8,9.31,31.88,9.18,31.87z"/>
</g>
<path d="M91.56,59.72c0.1-0.33,0.21-0.66,0.28-0.99c0.09-0.4,0.07-0.41,0.49-0.4c0.06,0,0.11,0.01,0.17,0.02
	c0.06,0.45-0.09,0.95-0.53,1.85c0.39,0.4,0.79,0.8,1.18,1.19c-0.72,0.23-1.21-0.13-1.63-0.66c-0.44,0.39-0.91,0.67-1.46,0.74
	c-0.37,0.05-0.77,0.06-1.14-0.02c-0.65-0.14-1.09-0.56-1.25-1.22c-0.16-0.66,0.05-1.22,0.54-1.67c0.21-0.19,0.45-0.33,0.69-0.5
	c-0.48-0.68-0.72-1.41-0.14-2.16c0.4-0.52,1.22-0.7,1.88-0.47c0.57,0.2,0.94,0.66,0.95,1.21c-0.12,0.02-0.24,0.04-0.36,0.07
	c-0.17,0.04-0.27-0.01-0.35-0.18c-0.21-0.51-0.67-0.71-1.16-0.53c-0.47,0.17-0.7,0.66-0.52,1.17c0.07,0.2,0.18,0.4,0.32,0.56
	c0.63,0.68,1.28,1.33,1.92,2C91.49,59.72,91.53,59.72,91.56,59.72z M91.11,60.28c-0.52-0.5-1.01-0.97-1.5-1.44
	c-0.37-0.36-0.37-0.37-0.74-0.01c-0.12,0.12-0.24,0.26-0.32,0.41c-0.38,0.71-0.01,1.53,0.75,1.67
	C89.98,61.03,90.56,60.8,91.11,60.28z"/>
<path d="M7.83,59.24c0,0.77,0,1.5,0,2.26c-0.27,0-0.54,0-0.81,0c0-2.02,0-4.02,0-6.09c0.86,0.03,1.71,0,2.55,0.11
	c0.98,0.13,1.51,0.84,1.5,1.81c-0.01,0.98-0.62,1.69-1.62,1.86c-0.21,0.04-0.43,0.05-0.65,0.05C8.49,59.25,8.17,59.24,7.83,59.24z
	 M7.85,56.13c0,0.81,0,1.63,0,2.45c0.38,0,0.73,0,1.09,0c0.1,0,0.2-0.02,0.3-0.04c0.61-0.12,1-0.6,1-1.22c0-0.64-0.37-1.1-1.02-1.18
	C8.77,56.09,8.32,56.13,7.85,56.13z"/>
<path d="M54.4,55.74c0.21,0.02,0.45-0.02,0.57,0.09c0.12,0.1,0.11,0.34,0.16,0.52c0.18-0.14,0.34-0.29,0.53-0.4
	c0.9-0.55,1.97-0.18,2.33,0.81c0.23,0.64,0.25,1.31,0.07,1.97c-0.38,1.42-1.94,1.8-2.9,0.96c0,0.62,0,1.21,0,1.82
	c-0.27,0-0.51,0-0.76,0C54.4,59.6,54.4,57.7,54.4,55.74z M55.15,57.97c0,0.29-0.01,0.58,0.01,0.87c0.01,0.11,0.06,0.25,0.13,0.33
	c0.62,0.66,1.7,0.4,1.98-0.48c0.16-0.53,0.16-1.07,0.01-1.6c-0.16-0.56-0.48-0.79-1.06-0.77c-0.62,0.02-1.07,0.47-1.07,1.08
	C55.15,57.58,55.15,57.78,55.15,57.97z"/>
<path d="M17.1,57.09c1.2,0,2,0.79,2.03,2.03c0.01,0.34-0.02,0.69-0.12,1.01c-0.28,0.95-1.04,1.42-2.14,1.36
	c-0.89-0.05-1.62-0.68-1.76-1.6c-0.06-0.41-0.07-0.85,0.01-1.26C15.32,57.65,16.07,57.09,17.1,57.09z M15.79,59.31
	c0.07,0.3,0.1,0.62,0.21,0.9c0.18,0.48,0.57,0.69,1.08,0.7c0.52,0.01,0.91-0.2,1.11-0.69c0.24-0.61,0.24-1.24-0.01-1.85
	c-0.21-0.5-0.61-0.69-1.14-0.67c-0.49,0.02-0.88,0.26-1.04,0.71C15.89,58.69,15.86,59,15.79,59.31z"/>
<path d="M110.01,59.29c0-0.68,0.16-1.32,0.72-1.76c0.69-0.54,1.46-0.58,2.24-0.25c0.8,0.34,1.08,1.05,1.12,1.86
	c0.03,0.49-0.04,0.97-0.28,1.4c-0.41,0.73-1.25,1.09-2.14,0.94c-0.86-0.15-1.45-0.73-1.61-1.59c-0.02-0.1-0.04-0.2-0.04-0.3
	C110,59.49,110.01,59.39,110.01,59.29z M110.75,59.29c0.07,0.31,0.1,0.62,0.2,0.9c0.18,0.49,0.58,0.7,1.1,0.71
	c0.52,0,0.91-0.21,1.1-0.7c0.24-0.61,0.24-1.24-0.02-1.85c-0.21-0.5-0.63-0.68-1.15-0.66c-0.49,0.02-0.85,0.24-1.02,0.7
	C110.85,58.67,110.81,58.98,110.75,59.29z"/>
<path d="M36.54,59.24c0.04-0.24,0.07-0.54,0.16-0.82c0.29-0.94,1.09-1.41,2.17-1.33c0.9,0.07,1.6,0.72,1.75,1.65
	c0.1,0.61,0.07,1.22-0.23,1.78c-0.39,0.74-1.22,1.1-2.13,0.96c-0.86-0.14-1.46-0.72-1.63-1.57C36.58,59.7,36.57,59.5,36.54,59.24z
	 M37.31,59.28c0.06,0.3,0.1,0.61,0.2,0.89c0.18,0.48,0.55,0.7,1.06,0.71c0.53,0.01,0.93-0.19,1.13-0.69
	c0.24-0.61,0.24-1.24-0.01-1.85c-0.21-0.51-0.64-0.69-1.17-0.67c-0.49,0.03-0.85,0.25-1.01,0.71
	C37.41,58.67,37.38,58.97,37.31,59.28z"/>
<path d="M107.27,61.51c-1.13,0-1.92-0.72-2.01-1.89c-0.03-0.38,0.01-0.79,0.11-1.16c0.27-0.95,1.1-1.44,2.18-1.35
	c0.91,0.08,1.61,0.73,1.73,1.66c0.05,0.38,0.05,0.79-0.02,1.16C109.09,60.95,108.35,61.51,107.27,61.51z M105.99,59.32
	c0.07,0.31,0.1,0.62,0.21,0.9c0.18,0.48,0.57,0.69,1.07,0.7c0.52,0.01,0.92-0.19,1.11-0.68c0.25-0.62,0.25-1.26-0.01-1.87
	c-0.21-0.5-0.63-0.68-1.15-0.65c-0.49,0.02-0.85,0.25-1.02,0.71C106.09,58.7,106.06,59.01,105.99,59.32z"/>
<path d="M103.75,56.14c0,1.81,0,3.58,0,5.37c-0.28,0-0.54,0-0.83,0c0-1.79,0-3.56,0-5.35c-0.66,0-1.3,0-1.96,0c0-0.24,0-0.46,0-0.7
	c1.57,0,3.13,0,4.72,0c0,0.22,0,0.44,0,0.68C105.05,56.14,104.42,56.14,103.75,56.14z"/>
<path d="M45.14,61.5c-0.24,0-0.47,0-0.74,0c0-0.1,0-0.2,0-0.3c0-0.85,0.01-1.7-0.02-2.55c-0.03-0.71-0.53-1.05-1.21-0.83
	c-0.27,0.09-0.5,0.28-0.73,0.45c-0.07,0.05-0.09,0.19-0.09,0.29c-0.01,0.88,0,1.75,0,2.63c0,0.09,0,0.18,0,0.29
	c-0.26,0-0.5,0-0.76,0c0-1.42,0-2.83,0-4.28c0.19,0.01,0.42-0.05,0.54,0.05c0.12,0.09,0.14,0.33,0.2,0.52
	c0.04-0.03,0.09-0.07,0.13-0.11c0.43-0.4,0.94-0.55,1.52-0.48c0.6,0.07,1.06,0.54,1.13,1.22c0.05,0.43,0.04,0.86,0.04,1.3
	c0.01,0.58,0,1.15,0,1.73C45.16,61.44,45.15,61.46,45.14,61.5z"/>
<path d="M65.55,57.2c0.21,0.02,0.44-0.02,0.57,0.07c0.11,0.09,0.11,0.32,0.17,0.51c0.05-0.04,0.1-0.08,0.15-0.12
	c0.43-0.4,0.94-0.55,1.52-0.48c0.59,0.07,1.04,0.53,1.13,1.2c0.04,0.33,0.04,0.66,0.04,1c0.01,0.68,0,1.37,0,2.05
	c0,0.02-0.01,0.03-0.02,0.06c-0.23,0-0.47,0-0.74,0c0-0.1,0-0.2,0-0.3c0-0.85,0.01-1.7-0.02-2.55c-0.03-0.7-0.52-1.04-1.19-0.83
	c-0.27,0.09-0.52,0.29-0.76,0.46c-0.07,0.05-0.08,0.19-0.08,0.29c-0.01,0.88,0,1.75,0,2.63c0,0.09,0,0.18,0,0.29
	c-0.26,0-0.51,0-0.76,0C65.55,60.08,65.55,58.67,65.55,57.2z"/>
<path d="M127.39,61.51c-0.27,0-0.51,0-0.75,0c0-1.43,0-2.84,0-4.25c0.53-0.11,0.56-0.08,0.73,0.54c0.05-0.04,0.1-0.08,0.15-0.12
	c0.43-0.4,0.94-0.55,1.52-0.48c0.6,0.07,1.06,0.54,1.13,1.22c0.05,0.43,0.04,0.86,0.04,1.3c0.01,0.59,0,1.18,0,1.79
	c-0.25,0-0.49,0-0.77,0c0-0.1,0-0.19,0-0.29c0-0.85,0.01-1.7-0.02-2.55c-0.03-0.71-0.53-1.05-1.21-0.83
	c-0.27,0.09-0.5,0.28-0.73,0.45c-0.07,0.05-0.09,0.19-0.09,0.29c-0.01,0.88,0,1.75,0,2.63C127.39,61.3,127.39,61.39,127.39,61.51z"
	/>
<path d="M23.35,59.3c0.03,0.2,0.04,0.37,0.08,0.53c0.21,0.87,0.91,1.27,1.77,1.02c0.15-0.04,0.3-0.11,0.43-0.19
	c0.43-0.23,0.43-0.24,0.7,0.2c-0.39,0.44-0.9,0.61-1.46,0.64c-1.36,0.08-2.24-0.77-2.26-2.14c-0.01-0.61,0.11-1.18,0.53-1.65
	c0.53-0.59,1.46-0.79,2.21-0.48c0.68,0.28,1.08,0.97,1.05,1.8c-0.01,0.2-0.07,0.28-0.28,0.27c-0.82-0.01-1.63,0-2.45,0
	C23.57,59.3,23.48,59.3,23.35,59.3z M25.69,58.84c0.02-0.69-0.4-1.16-1.01-1.18c-0.72-0.02-1.24,0.45-1.28,1.18
	C24.17,58.84,24.92,58.84,25.69,58.84z"/>
<path d="M76.83,60.85c-0.39,0.44-0.9,0.61-1.45,0.64c-1.36,0.09-2.27-0.76-2.27-2.12c0-0.38,0.06-0.79,0.2-1.14
	c0.34-0.89,1.31-1.31,2.3-1.08c0.8,0.19,1.32,0.96,1.28,1.89c-0.01,0.21-0.09,0.27-0.29,0.27c-0.82-0.01-1.63,0-2.45,0
	c-0.09,0-0.18,0-0.27,0c-0.1,1.24,0.93,1.95,2.07,1.45c0.06-0.03,0.12-0.06,0.18-0.09C76.53,60.43,76.53,60.43,76.83,60.85z
	 M76.18,58.84c0.01-0.71-0.41-1.17-1.03-1.18c-0.71-0.01-1.22,0.48-1.25,1.18C74.66,58.84,75.41,58.84,76.18,58.84z"/>
<path d="M125.64,60.87c-0.4,0.44-0.92,0.6-1.49,0.64c-1.71,0.11-2.41-1.28-2.19-2.72c0.21-1.35,1.41-1.93,2.56-1.59
	c0.92,0.27,1.23,1.15,1.18,1.93c-0.01,0.16-0.11,0.19-0.26,0.19c-0.83,0-1.65,0-2.48,0c-0.09,0-0.18,0-0.27,0
	c-0.11,1.13,0.81,1.87,1.86,1.53c0.13-0.04,0.26-0.1,0.39-0.17C125.37,60.43,125.37,60.43,125.64,60.87z M124.99,58.84
	c0.05-0.66-0.38-1.16-1.01-1.18c-0.72-0.02-1.27,0.5-1.26,1.18C123.48,58.84,124.24,58.84,124.99,58.84z"/>
<path d="M48.74,60.87c-0.15,0.12-0.28,0.23-0.42,0.32c-0.47,0.31-0.99,0.38-1.53,0.24c-0.41-0.11-0.65-0.4-0.72-0.81
	c-0.07-0.43,0.04-0.79,0.4-1.06c0.46-0.33,0.98-0.43,1.53-0.49c0.21-0.02,0.43-0.03,0.68-0.04c-0.01-0.23,0.01-0.46-0.04-0.67
	c-0.12-0.6-0.55-0.74-1.18-0.61c-0.17,0.04-0.34,0.14-0.49,0.23c-0.41,0.25-0.47,0.24-0.71-0.21c0.36-0.37,0.81-0.59,1.33-0.65
	c0.24-0.03,0.49-0.03,0.72,0.01c0.64,0.11,1.08,0.62,1.1,1.3c0.03,0.98,0.01,1.96,0.01,2.95C48.96,61.52,48.88,61.46,48.74,60.87z
	 M48.68,59.57c-0.22,0-0.42-0.03-0.6,0.01c-0.34,0.07-0.68,0.15-1,0.28c-0.23,0.09-0.33,0.32-0.28,0.58
	c0.05,0.26,0.2,0.42,0.46,0.47c0.52,0.08,0.97-0.07,1.34-0.44c0.04-0.04,0.07-0.11,0.08-0.17C48.68,60.06,48.68,59.83,48.68,59.57z"
	/>
<path d="M59.08,57.76c0.59-0.56,1.29-0.75,2.06-0.62c0.61,0.11,1.05,0.57,1.08,1.22c0.05,1.01,0.01,2.03,0.01,3.04
	c-0.52,0.09-0.54,0.08-0.67-0.53c-0.09,0.07-0.16,0.13-0.23,0.19c-0.44,0.37-0.95,0.5-1.52,0.42c-0.46-0.06-0.8-0.35-0.91-0.78
	c-0.12-0.48,0.03-0.9,0.45-1.18c0.56-0.37,1.21-0.45,1.86-0.48c0.08,0,0.17,0,0.31,0c-0.04-0.31-0.04-0.6-0.12-0.87
	c-0.13-0.42-0.59-0.58-1.11-0.43c-0.18,0.05-0.35,0.15-0.51,0.25C59.38,58.24,59.29,58.22,59.08,57.76z M61.49,59.58
	c-0.24,0-0.45-0.03-0.64,0.01c-0.32,0.07-0.65,0.15-0.95,0.27c-0.23,0.09-0.34,0.31-0.29,0.58c0.05,0.27,0.21,0.44,0.47,0.48
	c0.51,0.07,0.95-0.08,1.32-0.44c0.04-0.04,0.08-0.11,0.08-0.17C61.49,60.07,61.49,59.83,61.49,59.58z"/>
<path d="M136.92,59.06c0-0.23,0.03-0.43-0.01-0.63c-0.11-0.63-0.51-0.82-1.2-0.66c-0.17,0.04-0.34,0.14-0.49,0.24
	c-0.4,0.25-0.48,0.23-0.69-0.21c0.5-0.6,1.62-0.87,2.33-0.55c0.5,0.22,0.78,0.63,0.8,1.15c0.04,1,0.01,2.01,0.01,3.02
	c-0.51,0.1-0.55,0.08-0.68-0.52c-0.09,0.07-0.16,0.12-0.23,0.18c-0.45,0.38-0.97,0.5-1.54,0.42c-0.46-0.06-0.79-0.37-0.89-0.8
	c-0.11-0.47,0.04-0.87,0.43-1.14c0.57-0.38,1.22-0.46,1.88-0.49C136.73,59.05,136.81,59.06,136.92,59.06z M136.93,59.58
	c-0.56-0.02-1.09,0.02-1.57,0.27c-0.25,0.13-0.35,0.35-0.31,0.6c0.05,0.27,0.21,0.44,0.47,0.48c0.51,0.07,0.95-0.08,1.32-0.44
	c0.04-0.04,0.08-0.11,0.08-0.17C136.93,60.08,136.93,59.84,136.93,59.58z"/>
<path d="M21.01,61.5c-0.28,0-0.51,0-0.77,0c0-0.1-0.01-0.19-0.01-0.29c0-1.01,0-2.02,0-3.03c0-0.19-0.04-0.28-0.25-0.29
	c-0.42-0.03-0.44-0.08-0.41-0.59c0.1,0,0.21,0,0.31,0c0.11,0,0.21,0,0.34,0c0.01-0.24,0.02-0.46,0.04-0.68
	c0.08-0.93,0.99-1.52,1.88-1.22c0.18,0.06,0.13,0.18,0.11,0.28c-0.02,0.09-0.08,0.21-0.16,0.26c-0.07,0.05-0.19,0.01-0.29,0.02
	c-0.49,0.02-0.74,0.25-0.79,0.73c-0.02,0.2,0,0.4,0,0.62c0.4,0,0.8,0,1.2,0c0,0.19,0,0.35,0,0.54c-0.39,0-0.77,0-1.19,0
	C21.01,59.07,21.01,60.27,21.01,61.5z"/>
<path d="M27.02,60.95c0.05-0.08,0.09-0.15,0.14-0.22c0.11-0.2,0.26-0.22,0.44-0.09c0.31,0.22,0.65,0.34,1.03,0.28
	c0.17-0.03,0.36-0.09,0.5-0.19c0.35-0.27,0.31-0.73-0.07-0.95c-0.15-0.08-0.32-0.14-0.48-0.2c-0.24-0.09-0.49-0.16-0.73-0.26
	c-0.41-0.17-0.68-0.45-0.7-0.91c-0.03-0.48,0.16-0.86,0.58-1.11c0.68-0.42,1.69-0.29,2.28,0.29c-0.03,0.06-0.07,0.12-0.1,0.19
	c-0.1,0.2-0.23,0.24-0.42,0.12c-0.28-0.17-0.6-0.26-0.93-0.21c-0.16,0.02-0.33,0.08-0.46,0.17c-0.32,0.22-0.3,0.62,0.02,0.83
	c0.15,0.09,0.32,0.15,0.48,0.21c0.24,0.09,0.49,0.16,0.73,0.26c0.38,0.15,0.69,0.38,0.74,0.83c0.06,0.51-0.09,0.94-0.52,1.25
	C28.85,61.69,27.63,61.57,27.02,60.95z"/>
<path d="M33.69,57.59c-0.04,0.07-0.08,0.12-0.11,0.18c-0.09,0.19-0.22,0.22-0.4,0.11c-0.29-0.17-0.6-0.27-0.93-0.22
	c-0.16,0.02-0.33,0.07-0.46,0.16c-0.33,0.22-0.31,0.64,0.03,0.84c0.18,0.1,0.38,0.17,0.57,0.24c0.23,0.09,0.46,0.15,0.68,0.24
	c0.77,0.33,0.95,1.24,0.38,1.86c-0.63,0.68-2.09,0.65-2.72-0.06c0.04-0.07,0.08-0.14,0.12-0.21c0.11-0.21,0.27-0.23,0.45-0.1
	c0.31,0.22,0.66,0.34,1.03,0.27c0.18-0.03,0.38-0.1,0.52-0.22c0.32-0.27,0.27-0.71-0.09-0.92c-0.16-0.09-0.33-0.15-0.51-0.21
	c-0.26-0.1-0.52-0.17-0.77-0.28c-0.89-0.4-0.77-1.46-0.22-1.9C31.91,56.87,33.1,56.95,33.69,57.59z"/>
<path d="M143.61,57.59c-0.03,0.05-0.04,0.08-0.07,0.12c-0.18,0.3-0.2,0.31-0.51,0.15c-0.28-0.15-0.58-0.23-0.89-0.18
	c-0.15,0.02-0.31,0.07-0.44,0.16c-0.33,0.22-0.32,0.63,0.02,0.84c0.14,0.09,0.3,0.14,0.46,0.2c0.24,0.09,0.49,0.16,0.73,0.25
	c0.89,0.35,1.05,1.41,0.31,2.02c-0.66,0.55-1.99,0.45-2.59-0.19c0.03-0.06,0.07-0.12,0.11-0.18c0.16-0.25,0.24-0.27,0.48-0.11
	c0.31,0.21,0.65,0.33,1.01,0.26c0.19-0.03,0.39-0.11,0.53-0.23c0.31-0.26,0.25-0.71-0.1-0.9c-0.22-0.12-0.48-0.19-0.72-0.28
	c-0.19-0.07-0.38-0.13-0.56-0.21c-0.8-0.37-0.89-1.42-0.17-1.94C141.9,56.88,143.02,56.98,143.61,57.59z"/>
<path d="M83.89,57.58c-0.04,0.07-0.09,0.13-0.12,0.2c-0.09,0.19-0.22,0.21-0.39,0.11c-0.29-0.18-0.61-0.28-0.95-0.22
	c-0.16,0.02-0.33,0.08-0.46,0.17c-0.31,0.22-0.3,0.62,0.03,0.83c0.15,0.09,0.33,0.15,0.5,0.21c0.23,0.09,0.48,0.16,0.71,0.25
	c0.37,0.15,0.68,0.37,0.74,0.8c0.07,0.5-0.07,0.93-0.48,1.24c-0.68,0.52-1.94,0.42-2.55-0.22c0.04-0.07,0.09-0.15,0.13-0.22
	c0.11-0.2,0.26-0.21,0.44-0.09c0.31,0.22,0.65,0.34,1.03,0.28c0.17-0.03,0.36-0.09,0.5-0.2c0.35-0.27,0.31-0.74-0.08-0.95
	c-0.21-0.11-0.45-0.18-0.67-0.26c-0.19-0.07-0.38-0.13-0.56-0.21c-0.38-0.17-0.64-0.44-0.68-0.88c-0.03-0.47,0.14-0.85,0.54-1.11
	C82.24,56.87,83.29,56.98,83.89,57.58z"/>
<path d="M131.62,57.8c-0.15,0-0.27-0.01-0.4,0c-0.18,0.01-0.27-0.05-0.28-0.25c-0.01-0.22,0.09-0.25,0.27-0.26
	c0.14-0.01,0.28-0.04,0.45-0.06c0.04-0.34,0.09-0.69,0.13-1.03c0.06-0.48,0.09-0.5,0.62-0.43c0,0.24,0,0.48,0,0.72
	c0,0.24,0,0.48,0,0.75c0.41,0,0.81,0,1.21,0c0,0.19,0,0.36,0,0.55c-0.39,0-0.79,0-1.21,0c0,0.19,0,0.36,0,0.52c0,0.67,0,1.33,0,2
	c0,0.55,0.35,0.76,0.82,0.48c0.18-0.11,0.27-0.06,0.36,0.1c0.04,0.08,0.09,0.16,0.14,0.23c-0.37,0.4-1.19,0.52-1.65,0.24
	c-0.36-0.22-0.45-0.58-0.45-0.97c0-0.76,0-1.52,0-2.28C131.62,58.02,131.62,57.93,131.62,57.8z"/>
<path d="M71.27,55.76c0,0.51,0,0.99,0,1.49c0.41,0,0.8,0,1.2,0c0,0.19,0,0.36,0,0.55c-0.4,0-0.78,0-1.19,0
	c-0.01,0.11-0.01,0.2-0.01,0.28c0,0.73,0,1.47,0,2.2c0,0.59,0.34,0.79,0.84,0.5c0.15-0.09,0.24-0.06,0.32,0.08
	c0.05,0.09,0.1,0.17,0.15,0.25c-0.26,0.39-1.3,0.55-1.72,0.2c-0.3-0.25-0.37-0.58-0.37-0.94c0-0.76,0-1.52,0-2.28
	c0-0.09,0-0.18,0-0.29c-0.16,0-0.3,0-0.44,0c-0.17,0.01-0.23-0.08-0.24-0.24c0-0.15,0.02-0.24,0.21-0.26
	c0.52-0.05,0.52-0.06,0.57-0.57c0.02-0.22,0.07-0.43,0.08-0.64c0.01-0.27,0.13-0.38,0.4-0.34C71.12,55.75,71.18,55.75,71.27,55.76z"
	/>
<path d="M50.69,55.28c0.25,0,0.48,0,0.73,0c0,2.08,0,4.14,0,6.22c-0.23,0-0.47,0-0.73,0C50.69,59.44,50.69,57.37,50.69,55.28z"/>
<path d="M115.84,61.51c-0.25,0-0.48,0-0.72,0c0-2.08,0-4.14,0-6.22c0.23,0,0.47,0,0.72,0C115.84,57.35,115.84,59.42,115.84,61.51z"
	/>
<path d="M138.89,55.29c0.25,0,0.48,0,0.73,0c0,2.08,0,4.14,0,6.22c-0.23,0-0.47,0-0.73,0C138.89,59.45,138.89,57.38,138.89,55.29z"
	/>
<path d="M12.67,58.05c0.17-0.21,0.29-0.38,0.44-0.54c0.36-0.37,0.79-0.42,1.27-0.3c0.14,0.03,0.2,0.11,0.16,0.25
	c-0.01,0.06-0.02,0.11-0.03,0.17c-0.07,0.38-0.07,0.38-0.46,0.3c-0.68-0.13-1.34,0.41-1.34,1.1c0,0.73,0,1.45,0,2.18
	c0,0.09,0,0.18,0,0.29c-0.26,0-0.5,0-0.75,0c0-1.42,0-2.83,0-4.29c0.16,0,0.33-0.03,0.48,0.01c0.08,0.02,0.16,0.15,0.18,0.25
	C12.66,57.65,12.66,57.83,12.67,58.05z"/>
<path d="M78.62,61.5c-0.27,0-0.5,0-0.75,0c0-1.43,0-2.85,0-4.29c0.16,0,0.33-0.03,0.47,0.01c0.08,0.02,0.17,0.15,0.19,0.24
	c0.04,0.18,0.03,0.37,0.05,0.58c0.18-0.21,0.32-0.41,0.49-0.57c0.36-0.35,0.8-0.38,1.26-0.24c0.06,0.02,0.1,0.12,0.13,0.19
	c0.02,0.04-0.01,0.1-0.02,0.15c-0.08,0.42-0.08,0.42-0.5,0.36c-0.67-0.11-1.3,0.43-1.31,1.11c0,0.72,0,1.45,0,2.17
	C78.62,61.3,78.62,61.39,78.62,61.5z"/>
<path d="M119.54,58.06c0.17-0.21,0.29-0.38,0.44-0.54c0.35-0.37,0.79-0.42,1.27-0.3c0.13,0.03,0.21,0.1,0.17,0.25
	c-0.01,0.05-0.02,0.1-0.02,0.15c-0.07,0.4-0.07,0.4-0.48,0.33c-0.68-0.12-1.32,0.42-1.32,1.12c0,0.72,0,1.45,0,2.17
	c0,0.09,0,0.18,0,0.28c-0.26,0-0.5,0-0.75,0c0-1.42,0-2.84,0-4.29c0.16,0,0.33-0.03,0.48,0.01c0.08,0.02,0.16,0.15,0.18,0.25
	C119.53,57.66,119.52,57.84,119.54,58.06z"/>
<path d="M63.45,57.23c0.25,0,0.48,0,0.73,0c0,1.43,0,2.84,0,4.27c-0.23,0-0.47,0-0.73,0C63.45,60.09,63.45,58.67,63.45,57.23z"/>
<path d="M35.55,61.5c-0.24,0-0.48,0-0.73,0c0-1.43,0-2.84,0-4.27c0.24,0,0.47,0,0.73,0C35.55,58.65,35.55,60.07,35.55,61.5z"/>
<path d="M63.82,61.5c-0.3,0-0.55-0.23-0.55-0.53c0-0.29,0.23-0.52,0.52-0.52c0.31-0.01,0.55,0.21,0.56,0.51
	C64.37,61.26,64.13,61.5,63.82,61.5z"/>
<path d="M35.17,56.5c-0.29-0.01-0.52-0.24-0.52-0.53c0-0.3,0.25-0.53,0.55-0.52c0.31,0.01,0.54,0.24,0.53,0.54
	C35.73,56.29,35.48,56.51,35.17,56.5z"/>
<g>
	<path d="M99.53,50.28c0,1.04,0,2.09,0,3.13c0,0.55,0.02,1.1-0.02,1.65c-0.06,0.83-0.7,1.4-1.54,1.41
		c-0.84,0.01-1.51-0.53-1.64-1.32c-0.02-0.11-0.01-0.22-0.01-0.33c0.01-2.98,0.01-5.95,0.03-8.93c0-0.74,0.05-1.49,0.23-2.21
		c0.56-2.15,1.91-3.55,4.07-4.13c1.42-0.38,2.85-0.36,4.23,0.12c2.33,0.8,3.49,2.58,3.83,4.93c0.17,1.17,0.12,2.36-0.3,3.51
		c-1.18,3.21-4.42,4.09-6.84,3.36c-0.74-0.22-1.37-0.66-1.89-1.26C99.64,50.23,99.59,50.26,99.53,50.28z M102.55,48.92
		c1.25,0.01,2.23-0.63,2.68-1.81c0.38-0.98,0.42-1.98,0.07-2.98c-0.45-1.33-1.42-2.05-2.76-2.04c-1.31,0.01-2.32,0.77-2.74,2.08
		c-0.3,0.95-0.28,1.9,0.05,2.83C100.28,48.22,101.29,48.91,102.55,48.92z"/>
	<path d="M135.95,51.42c-0.77,0-1.54,0-2.32,0c-0.25,0-0.5-0.01-0.74-0.06c-0.68-0.15-1.15-0.71-1.14-1.33
		c0.01-0.61,0.51-1.18,1.17-1.31c0.24-0.05,0.49-0.04,0.74-0.04c1.1-0.01,2.21,0,3.31-0.01c0.22,0,0.44,0,0.66-0.03
		c0.52-0.07,0.83-0.41,0.82-0.87c-0.01-0.46-0.33-0.81-0.83-0.86c-0.33-0.03-0.66-0.02-0.99-0.02c-0.74-0.01-1.49-0.01-2.23-0.09
		c-1.4-0.15-2.49-0.77-2.95-2.15c-0.49-1.5-0.24-2.9,0.94-4.02c0.57-0.54,1.22-0.89,2.05-0.95c1.52-0.1,3.03-0.06,4.55-0.07
		c0.16,0,0.33,0.03,0.48,0.08c0.65,0.21,1.06,0.75,1.04,1.33c-0.02,0.56-0.43,1.04-1.05,1.24c-0.32,0.11-0.65,0.11-0.98,0.11
		c-1.1,0.01-2.21,0.03-3.31,0.03c-0.39,0-0.62,0.21-0.73,0.55c-0.1,0.32,0.03,0.59,0.26,0.82c0.18,0.18,0.41,0.14,0.62,0.15
		c0.96,0.05,1.93,0.1,2.89,0.12c2.68,0.06,3.75,2.25,3.35,4.35c-0.25,1.33-1.1,2.18-2.26,2.78c-0.25,0.13-0.53,0.16-0.8,0.16
		c-0.85,0-1.71,0-2.56,0C135.95,51.36,135.95,51.39,135.95,51.42z"/>
	<path d="M125.52,44.04c0-0.8,0-1.6,0-2.4c0-0.25,0.01-0.5,0.06-0.74c0.16-0.83,0.83-1.35,1.65-1.31c0.8,0.04,1.5,0.64,1.52,1.46
		c0.04,2.26,0.16,4.53-0.18,6.77c-0.17,1.12-0.88,2.01-1.78,2.7c-2.1,1.62-5.67,1.59-7.72-0.1c-1.03-0.85-1.66-1.92-1.77-3.32
		c-0.15-1.96-0.08-3.91-0.1-5.87c-0.01-0.84,0.52-1.46,1.26-1.62c0.69-0.15,1.42,0.18,1.76,0.79c0.19,0.35,0.21,0.73,0.22,1.12
		c0.01,1.63,0.01,3.25,0.04,4.88c0.02,1.23,0.74,2.16,1.83,2.44c1.17,0.29,2.27-0.18,2.91-1.23c0.16-0.27,0.24-0.55,0.24-0.86
		c0-0.91,0-1.82,0-2.73C125.49,44.04,125.51,44.04,125.52,44.04z"/>
	<path d="M114.26,43c0,2.09,0,4.19,0,6.28c0,0.25,0.01,0.5-0.02,0.74c-0.09,0.82-0.74,1.39-1.57,1.4c-0.81,0-1.5-0.58-1.61-1.37
		c-0.01-0.11-0.01-0.22-0.01-0.33c0-4.49,0-8.98,0-13.47c0-0.89,0.41-1.44,1.19-1.67c0.89-0.26,1.83,0.32,1.98,1.23
		c0.04,0.27,0.04,0.55,0.04,0.82C114.27,38.75,114.26,40.88,114.26,43z"/>
	<path d="M97.96,62.28L97.96,62.28c-0.9,0-1.63-0.73-1.63-1.63v-10.8c0-0.9,0.73-1.63,1.63-1.63l0,0c0.9,0,1.63,0.73,1.63,1.63v10.8
		C99.6,61.55,98.87,62.28,97.96,62.28z"/>
</g>
</svg>
